<svg width="700" height="771" viewBox="0 0 700 771" fill="none" xmlns="http://www.w3.org/2000/svg">
<mask id="mask0_4704_243950" style="mask-type:alpha" maskUnits="userSpaceOnUse" x="0" y="0" width="700" height="771">
<rect width="700" height="771" fill="#C4C4C4"/>
</mask>
<g mask="url(#mask0_4704_243950)">
<g opacity="0.6">
<path d="M221.654 -78.2129L-290.932 770.44H-2.44556L510.125 -78.2129H221.654Z" fill="url(#paint0_linear_4704_243950)"/>
<path d="M383.597 -162.023L242.17 72.1425C240.294 75.2763 239.281 78.8508 239.234 82.5028C239.187 86.1548 240.107 89.7543 241.901 92.9356C243.695 96.1169 246.299 98.7667 249.449 100.616C252.598 102.465 256.181 103.448 259.834 103.464H603.883C607.447 103.472 610.953 102.558 614.06 100.813C617.168 99.0675 619.772 96.549 621.62 93.5014L763.062 -140.678C764.941 -143.818 765.955 -147.399 765.999 -151.057C766.043 -154.715 765.116 -158.32 763.313 -161.504C761.51 -164.687 758.896 -167.336 755.736 -169.18C752.576 -171.024 748.984 -171.997 745.325 -172H401.276C397.72 -171.996 394.226 -171.076 391.129 -169.328C388.033 -167.58 385.439 -165.064 383.597 -162.023Z" fill="url(#paint1_linear_4704_243950)"/>
<path d="M50.2646 -48.7092L-336 590.803H1.56021L387.825 -48.7092H50.2646Z" fill="url(#paint2_linear_4704_243950)"/>
<path d="M72.939 300.691L-66.3746 531.279C-66.8068 531.994 -67.0412 532.811 -67.0538 533.647C-67.0663 534.482 -66.8566 535.306 -66.446 536.034C-66.0355 536.762 -65.4389 537.368 -64.7172 537.789C-63.9956 538.211 -63.175 538.433 -62.3393 538.433H-35.4965C-34.6837 538.43 -33.8854 538.217 -33.1786 537.816C-32.4718 537.415 -31.8803 536.838 -31.4612 536.142L107.838 305.554C108.27 304.838 108.504 304.021 108.517 303.186C108.529 302.35 108.32 301.526 107.909 300.798C107.499 300.07 106.902 299.465 106.18 299.043C105.459 298.622 104.638 298.4 103.802 298.4H76.9595C76.149 298.404 75.3532 298.617 74.6489 299.018C73.9447 299.419 73.3557 299.995 72.939 300.691Z" fill="url(#paint3_linear_4704_243950)"/>
<path d="M72.939 300.691L-66.3746 531.279C-66.8068 531.994 -67.0412 532.811 -67.0538 533.647C-67.0663 534.482 -66.8566 535.306 -66.446 536.034C-66.0355 536.762 -65.4389 537.368 -64.7172 537.789C-63.9956 538.211 -63.175 538.433 -62.3393 538.433H-35.4965C-34.6837 538.43 -33.8854 538.217 -33.1786 537.816C-32.4718 537.415 -31.8803 536.838 -31.4612 536.142L107.838 305.554C108.27 304.838 108.504 304.021 108.517 303.186C108.529 302.35 108.32 301.526 107.909 300.798C107.499 300.07 106.902 299.465 106.18 299.043C105.459 298.622 104.638 298.4 103.802 298.4H76.9595C76.149 298.404 75.3532 298.617 74.6489 299.018C73.9447 299.419 73.3557 299.995 72.939 300.691Z" stroke="url(#paint4_linear_4704_243950)" stroke-width="1.78" stroke-miterlimit="10"/>
<path d="M-99.1004 337.348H110.986C113.496 337.35 115.963 336.703 118.149 335.47C120.335 334.238 122.165 332.461 123.461 330.312L202.423 199.587C203.769 197.374 204.502 194.842 204.546 192.252C204.591 189.662 203.944 187.107 202.674 184.85C201.404 182.592 199.555 180.714 197.319 179.407C195.082 178.1 192.538 177.413 189.948 177.415H-20.1831C-22.692 177.416 -25.1583 178.064 -27.3436 179.296C-29.529 180.529 -31.3595 182.304 -32.6585 184.451L-111.62 315.191C-112.97 317.406 -113.704 319.941 -113.746 322.535C-113.789 325.128 -113.139 327.686 -111.863 329.944C-110.587 332.202 -108.731 334.079 -106.488 335.38C-104.244 336.682 -101.694 337.361 -99.1004 337.348Z" fill="url(#paint5_linear_4704_243950)"/>
<path d="M-99.1004 337.348H110.986C113.496 337.35 115.963 336.703 118.149 335.47C120.335 334.238 122.165 332.461 123.461 330.312L202.423 199.587C203.769 197.374 204.502 194.842 204.546 192.252C204.591 189.662 203.944 187.107 202.674 184.85C201.404 182.592 199.555 180.714 197.319 179.407C195.082 178.1 192.538 177.413 189.948 177.415H-20.1831C-22.692 177.416 -25.1583 178.064 -27.3436 179.296C-29.529 180.529 -31.3595 182.304 -32.6585 184.451L-111.62 315.191C-112.97 317.406 -113.704 319.941 -113.746 322.535C-113.789 325.128 -113.139 327.686 -111.863 329.944C-110.587 332.202 -108.731 334.079 -106.488 335.38C-104.244 336.682 -101.694 337.361 -99.1004 337.348Z" stroke="url(#paint6_linear_4704_243950)" stroke-width="1.78" stroke-miterlimit="10"/>
<path d="M-76.1006 487.659L147.215 117.935C147.99 116.651 148.41 115.184 148.432 113.684C148.454 112.185 148.077 110.706 147.341 109.4C146.604 108.093 145.534 107.006 144.239 106.249C142.944 105.491 141.472 105.092 139.972 105.09H98.7915C97.3335 105.09 95.9 105.466 94.629 106.18C93.358 106.895 92.2921 107.924 91.5339 109.17L-131.767 478.894C-132.542 480.178 -132.962 481.645 -132.984 483.145C-133.006 484.644 -132.629 486.123 -131.893 487.429C-131.156 488.736 -130.086 489.823 -128.791 490.58C-127.496 491.337 -126.024 491.737 -124.524 491.739H-83.3435C-81.8865 491.743 -80.4533 491.369 -79.1839 490.654C-77.9144 489.939 -76.8521 488.907 -76.1006 487.659Z" fill="url(#paint7_linear_4704_243950)"/>
<path d="M-76.1006 487.659L147.215 117.935C147.99 116.651 148.41 115.184 148.432 113.684C148.454 112.185 148.077 110.706 147.341 109.4C146.604 108.093 145.534 107.006 144.239 106.249C142.944 105.491 141.472 105.092 139.972 105.09H98.7915C97.3335 105.09 95.9 105.466 94.629 106.18C93.358 106.895 92.2921 107.924 91.5339 109.17L-131.767 478.894C-132.542 480.178 -132.962 481.645 -132.984 483.144C-133.006 484.644 -132.629 486.123 -131.893 487.429C-131.156 488.736 -130.086 489.823 -128.791 490.58C-127.496 491.337 -126.024 491.737 -124.524 491.739H-83.3435C-81.8865 491.743 -80.4533 491.369 -79.1839 490.654C-77.9144 489.939 -76.8521 488.907 -76.1006 487.659V487.659Z" stroke="url(#paint8_linear_4704_243950)" stroke-width="1.78" stroke-miterlimit="10"/>
<g style="mix-blend-mode:overlay">
<g style="mix-blend-mode:overlay">
<path d="M-40.7291 346.114L82.0295 142.871" stroke="#A7A9AC" stroke-width="1.13" stroke-miterlimit="10"/>
</g>
<g style="mix-blend-mode:overlay">
<path d="M-30.7073 346.114L92.0365 142.871" stroke="#A7A9AC" stroke-width="1.13" stroke-miterlimit="10"/>
</g>
<g style="mix-blend-mode:overlay">
<path d="M-20.7004 346.114L102.058 142.871" stroke="#A7A9AC" stroke-width="1.13" stroke-miterlimit="10"/>
</g>
<g style="mix-blend-mode:overlay">
<path d="M-10.6934 346.114L112.065 142.871" stroke="#A7A9AC" stroke-width="1.13" stroke-miterlimit="10"/>
</g>
<g style="mix-blend-mode:overlay">
<path d="M-0.686462 346.114L122.072 142.871" stroke="#A7A9AC" stroke-width="1.13" stroke-miterlimit="10"/>
</g>
</g>
<path d="M-28.0615 -13.7221L-110.984 123.507C-112.697 126.346 -113.625 129.589 -113.673 132.904C-113.721 136.219 -112.887 139.487 -111.257 142.374C-109.627 145.262 -107.259 147.664 -104.396 149.335C-101.533 151.007 -98.277 151.887 -94.9616 151.887H278.606C281.828 151.9 284.998 151.081 287.81 149.509C290.622 147.937 292.981 145.666 294.658 142.915L335.307 75.6013C336.974 72.8437 339.325 70.5634 342.132 68.9811C344.939 67.3989 348.107 66.5683 351.33 66.5699H571.29C574.514 66.5697 577.684 65.7385 580.493 64.1565C583.302 62.5746 585.656 60.2953 587.328 57.5385L618.664 5.62665C620.377 2.78788 621.305 -0.454945 621.352 -3.77001C621.4 -7.08507 620.567 -10.3533 618.937 -13.2404C617.307 -16.1275 614.939 -18.5296 612.076 -20.2011C609.212 -21.8726 605.957 -22.7534 602.641 -22.7534H-12.0386C-15.2601 -22.7507 -18.4266 -21.9183 -21.233 -20.3364C-24.0394 -18.7546 -26.3911 -16.4767 -28.0615 -13.7221Z" fill="url(#paint9_linear_4704_243950)"/>
<path d="M-28.0615 -13.7221L-110.984 123.507C-112.697 126.346 -113.625 129.589 -113.673 132.904C-113.721 136.219 -112.887 139.487 -111.257 142.374C-109.627 145.262 -107.259 147.664 -104.396 149.335C-101.533 151.007 -98.277 151.887 -94.9616 151.887H278.606C281.828 151.9 284.998 151.081 287.81 149.509C290.622 147.937 292.981 145.666 294.658 142.915L335.307 75.6013C336.974 72.8437 339.325 70.5634 342.132 68.9811C344.939 67.3989 348.107 66.5683 351.33 66.5699H571.29C574.514 66.5697 577.684 65.7385 580.493 64.1565C583.302 62.5746 585.656 60.2953 587.328 57.5385L618.664 5.62665C620.377 2.78788 621.305 -0.454944 621.352 -3.77001C621.4 -7.08507 620.567 -10.3533 618.937 -13.2404C617.307 -16.1275 614.939 -18.5296 612.076 -20.2011C609.212 -21.8726 605.957 -22.7534 602.641 -22.7534H-12.0386C-15.2601 -22.7507 -18.4266 -21.9183 -21.233 -20.3364C-24.0394 -18.7546 -26.3911 -16.4767 -28.0615 -13.7221V-13.7221Z" stroke="url(#paint10_linear_4704_243950)" stroke-width="1.78" stroke-miterlimit="10"/>
</g>
</g>
<defs>
<linearGradient id="paint0_linear_4704_243950" x1="-190.552" y1="846.371" x2="263.972" y2="88.8156" gradientUnits="userSpaceOnUse">
<stop stop-color="#303842"/>
<stop offset="0.01" stop-color="#303741"/>
<stop offset="0.4" stop-color="#1C2026"/>
<stop offset="0.74" stop-color="#0F1215"/>
<stop offset="1" stop-color="#0B0D0F"/>
</linearGradient>
<linearGradient id="paint1_linear_4704_243950" x1="252.118" y1="-3.02037" x2="912.605" y2="-85.4261" gradientUnits="userSpaceOnUse">
<stop stop-color="#0B0D0F"/>
<stop offset="0.26" stop-color="#0F1215"/>
<stop offset="0.6" stop-color="#1C2026"/>
<stop offset="0.99" stop-color="#303741"/>
<stop offset="1" stop-color="#303842"/>
</linearGradient>
<linearGradient id="paint2_linear_4704_243950" x1="58156.3" y1="366469" x2="207161" y2="85386.5" gradientUnits="userSpaceOnUse">
<stop stop-color="#303842"/>
<stop offset="0.01" stop-color="#303741"/>
<stop offset="0.4" stop-color="#1C2026"/>
<stop offset="0.74" stop-color="#0F1215"/>
<stop offset="1" stop-color="#0B0D0F"/>
</linearGradient>
<linearGradient id="paint3_linear_4704_243950" x1="101.792" y1="282.82" x2="-50.8394" y2="538.167" gradientUnits="userSpaceOnUse">
<stop stop-color="#0B0D0F"/>
<stop offset="0.26" stop-color="#0F1215"/>
<stop offset="0.6" stop-color="#1C2026"/>
<stop offset="0.99" stop-color="#303842"/>
<stop offset="1" stop-color="#303842"/>
</linearGradient>
<linearGradient id="paint4_linear_4704_243950" x1="96.4708" y1="291.718" x2="-55.0373" y2="545.173" gradientUnits="userSpaceOnUse">
<stop stop-color="#0B0D0F"/>
<stop offset="0.54" stop-color="#1E2329"/>
<stop offset="1" stop-color="#303842"/>
</linearGradient>
<linearGradient id="paint5_linear_4704_243950" x1="-59.3091" y1="257.411" x2="258.947" y2="257.411" gradientUnits="userSpaceOnUse">
<stop stop-color="#0B0D0F"/>
<stop offset="0.32" stop-color="#14181C"/>
<stop offset="0.91" stop-color="#2C333D"/>
<stop offset="1" stop-color="#303842"/>
</linearGradient>
<linearGradient id="paint6_linear_4704_243950" x1="-115.02" y1="257.411" x2="205.867" y2="257.411" gradientUnits="userSpaceOnUse">
<stop stop-color="#0B0D0F"/>
<stop offset="0.47" stop-color="#1B1F25"/>
<stop offset="1" stop-color="#303842"/>
</linearGradient>
<linearGradient id="paint7_linear_4704_243950" x1="24614.8" y1="6538.93" x2="-45175.8" y2="89187.2" gradientUnits="userSpaceOnUse">
<stop stop-color="#0B0D0F"/>
<stop offset="0.26" stop-color="#0F1215"/>
<stop offset="0.6" stop-color="#1C2026"/>
<stop offset="0.99" stop-color="#303842"/>
<stop offset="1" stop-color="#303842"/>
</linearGradient>
<linearGradient id="paint8_linear_4704_243950" x1="131.576" y1="96.9011" x2="-116.143" y2="499.928" gradientUnits="userSpaceOnUse">
<stop stop-color="#0B0D0F"/>
<stop offset="0.13" stop-color="#14171B"/>
<stop offset="0.61" stop-color="#303842"/>
</linearGradient>
<linearGradient id="paint9_linear_4704_243950" x1="41.7357" y1="64.5892" x2="776.824" y2="64.5892" gradientUnits="userSpaceOnUse">
<stop stop-color="#0B0D0F"/>
<stop offset="1" stop-color="#303842"/>
</linearGradient>
<linearGradient id="paint10_linear_4704_243950" x1="-115.02" y1="64.5892" x2="622.699" y2="64.5892" gradientUnits="userSpaceOnUse">
<stop stop-color="#0B0D0F"/>
<stop offset="0.81" stop-color="#292F38"/>
<stop offset="1" stop-color="#303842"/>
</linearGradient>
</defs>
</svg>
