<svg width="188" height="60" viewBox="0 0 188 60" fill="none" xmlns="http://www.w3.org/2000/svg">
<path d="M15.5558 44.5002H15.0916L5.77077 17.9932H0.0117188V18.6906L12.1199 51.001H18.4808L30.582 18.6906V17.9932H24.8696L15.5558 44.5002Z" fill="white"/>
<path d="M75.7753 20.9952H70.3428V27.0132H65.7687V30.7989H70.3428V45.1954C70.3428 47.0987 70.8793 48.5426 71.9569 49.5269C73.0322 50.5112 74.539 51.0011 76.4727 51.0011H80.8836V47.0078H77.7486C76.4331 47.0078 75.7753 46.35 75.7753 45.0344V30.7989H81.0235V27.0132H75.7753V20.9952Z" fill="white"/>
<path d="M53.6978 26.458C50.0917 26.458 47.2157 27.5146 45.072 29.6279C42.9284 31.7412 41.8555 34.8645 41.8555 38.9978C41.8555 43.131 42.9308 46.259 45.0837 48.3792C47.2343 50.4995 50.122 51.5608 53.7444 51.5608C55.5708 51.5608 57.1313 51.3252 58.4235 50.8517C59.7157 50.3806 60.7841 49.7648 61.6284 49.0067C62.4728 48.2486 63.1189 47.4346 63.5668 46.5692C64.0146 45.7015 64.3179 44.8734 64.4718 44.085V43.3876H59.6411C59.5315 44.0221 59.2609 44.6658 58.8294 45.3143C58.3955 45.9651 57.7611 46.5062 56.926 46.9401C56.091 47.3739 55.0063 47.5908 53.6745 47.5908C51.6148 47.5908 50.0217 46.9284 48.8904 45.6058C47.7591 44.2833 47.1713 42.5292 47.1247 40.346H64.9593V38.0461C64.9593 34.44 63.9843 31.6059 62.0343 29.5463C60.0843 27.4867 57.3039 26.458 53.6978 26.458ZM47.1947 36.5579C47.3486 34.7782 47.9621 33.304 49.0304 32.1354C50.0987 30.9668 51.6382 30.3813 53.6511 30.3813C55.6641 30.3813 57.2386 30.9575 58.2369 32.1121C59.2352 33.2667 59.7414 34.7479 59.7577 36.5579H47.1947Z" fill="white"/>
<path d="M98.9887 44.8711C98.5945 45.6292 98.002 46.252 97.2113 46.7395C96.4229 47.227 95.3849 47.4719 94.0997 47.4719C92.04 47.4719 90.4189 46.7325 89.234 45.2536C88.049 43.7748 87.4566 41.6895 87.4566 38.9954C87.4566 36.3013 88.0514 34.2394 89.2456 32.7606C90.4376 31.2817 92.0564 30.5423 94.0997 30.5423C95.3546 30.5423 96.3716 30.7779 97.153 31.2514C97.9344 31.7249 98.5198 32.3197 98.907 33.0405C99.2942 33.7612 99.5252 34.5006 99.6045 35.2587H104.759V34.5613C104.619 33.2154 104.141 31.9232 103.32 30.6823C102.499 29.4437 101.324 28.429 99.7911 27.6406C98.2586 26.8522 96.3459 26.4557 94.0553 26.4557C91.6248 26.4557 89.4952 26.9479 87.6688 27.9299C85.8425 28.9142 84.4266 30.337 83.4189 32.2031C82.4113 34.0691 81.9098 36.334 81.9098 38.9954C81.9098 41.6569 82.4136 43.9451 83.4189 45.8111C84.4243 47.6772 85.8378 49.1 87.6572 50.0843C89.4766 51.0663 91.6085 51.5585 94.0553 51.5585C96.5022 51.5585 98.3122 51.1596 99.861 50.3619C101.41 49.5642 102.597 48.5262 103.425 47.2503C104.253 45.9721 104.745 44.6145 104.899 43.1754V42.4779H99.7444C99.6371 43.313 99.3852 44.1107 98.991 44.8688L98.9887 44.8711Z" fill="white"/>
<path d="M125.813 30.0571H125.349C124.822 29.1591 123.952 28.3427 122.736 27.6079C121.521 26.8732 119.846 26.5046 117.71 26.5046C115.573 26.5046 113.835 26.9665 112.172 27.8855C110.509 28.8069 109.189 30.1877 108.214 32.0304C107.239 33.8731 106.751 36.194 106.751 38.9977C106.751 41.8015 107.239 44.127 108.214 45.9767C109.189 47.8264 110.509 49.2119 112.172 50.1333C113.835 51.0546 115.683 51.5142 117.71 51.5142C119.846 51.5142 121.521 51.1456 122.736 50.4109C123.952 49.6761 124.822 48.8597 125.349 47.9617H125.813V51.0033H131.108V27.0155H125.813V30.0571ZM123.979 45.221C122.741 46.6461 121.108 47.3576 119.079 47.3576C117.05 47.3576 115.393 46.6461 114.155 45.221C112.916 43.7958 112.298 41.7221 112.298 38.9977C112.298 36.2733 112.916 34.223 114.155 32.7978C115.393 31.3727 117.033 30.6612 119.079 30.6612C121.124 30.6612 122.739 31.3727 123.979 32.7978C125.218 34.223 125.836 36.2897 125.836 38.9977C125.836 41.7058 125.216 43.7981 123.979 45.221Z" fill="white"/>
<path d="M158.483 32.0304C157.508 30.1877 156.187 28.8069 154.524 27.8855C152.859 26.9642 151.014 26.5046 148.987 26.5046C146.85 26.5046 145.178 26.8732 143.972 27.6079C142.764 28.3427 141.889 29.1591 141.348 30.0571H140.883V27.0155H135.589V59.9999H141.091V48.2393H141.555C142.05 48.9973 142.878 49.7321 144.039 50.4459C145.201 51.1573 146.85 51.5142 148.984 51.5142C151.119 51.5142 152.859 51.0523 154.522 50.1333C156.185 49.2119 157.505 47.8264 158.48 45.9767C159.455 44.127 159.943 41.8015 159.943 38.9977C159.943 36.194 159.455 33.8731 158.48 32.0304H158.483ZM152.539 45.221C151.301 46.6461 149.668 47.3576 147.639 47.3576C145.609 47.3576 143.974 46.6461 142.729 45.221C141.483 43.7958 140.858 41.7221 140.858 38.9977C140.858 36.2733 141.481 34.223 142.729 32.7978C143.974 31.3727 145.612 30.6612 147.639 30.6612C149.666 30.6612 151.301 31.3727 152.539 32.7978C153.778 34.223 154.396 36.2897 154.396 38.9977C154.396 41.7058 153.778 43.7981 152.539 45.221Z" fill="white"/>
<path d="M33.0873 51.0009H38.5897V27.0154H33.0873V51.0009Z" fill="white"/>
<path d="M35.7952 17.9932C34.1368 17.9932 32.7932 19.3367 32.7932 20.9951C32.7932 22.6536 34.1368 23.9971 35.7952 23.9971C37.4536 23.9971 38.7972 22.6536 38.7972 20.9951C38.7972 19.3367 37.4536 17.9932 35.7952 17.9932Z" fill="white"/>
<path d="M165.561 24.0205H183.639C185.848 24.0205 187.284 21.6949 186.295 19.7216L177.257 1.6444C176.163 -0.545855 173.037 -0.545855 171.941 1.6444L162.902 19.7216C161.916 21.6973 163.35 24.0205 165.559 24.0205H165.561Z" fill="#00FF00"/>
</svg>
